<svg width="16" height="16" viewBox="0 0 16 16" fill="none" xmlns="http://www.w3.org/2000/svg">
<path d="M10.3253 12.2891C10.39 12.2255 10.4256 12.138 10.4238 12.0473C10.4219 11.9566 10.3828 11.8707 10.3155 11.8098C8.97919 10.6784 7.02199 10.6784 5.68565 11.8098C5.61837 11.8706 5.57914 11.9565 5.57722 12.0472C5.57531 12.138 5.61087 12.2254 5.67552 12.2891L7.76836 14.4029C7.8297 14.465 7.91333 14.5 8.00059 14.5C8.08785 14.5 8.17148 14.465 8.23282 14.4029L10.3253 12.2891Z" fill="#CCCCCC"/>
<path d="M8.00035 9.36904C9.27585 9.36896 10.5058 9.84354 11.4513 10.7006C11.5792 10.8222 11.7806 10.8195 11.9053 10.6946L13.1149 9.47111C13.1787 9.40694 13.214 9.31988 13.2131 9.22941C13.2122 9.13894 13.1751 9.05262 13.1101 8.98975C10.2309 6.30884 5.77223 6.30884 2.89309 8.98975C2.82806 9.05262 2.79095 9.13898 2.7901 9.22948C2.78925 9.31998 2.82472 9.40703 2.88855 9.47111L4.09788 10.6946C4.22254 10.8195 4.42398 10.8222 4.55186 10.7006C5.4967 9.8441 6.7257 9.36956 8.00035 9.36904Z" fill="#CCCCCC"/>
<path opacity="0.2" d="M8.00044 5.38827C10.3219 5.38837 12.5546 6.28128 14.2371 7.88246C14.3638 8.00608 14.5663 8.00452 14.691 7.87896L15.9021 6.65546C15.9653 6.59178 16.0005 6.50552 16 6.41577C15.9995 6.32603 15.9632 6.24019 15.8993 6.17725C11.4834 1.94092 4.51678 1.94092 0.100859 6.17725C0.0368916 6.24014 0.000597157 6.32595 7.30289e-06 6.4157C-0.000582551 6.50545 0.0345808 6.59174 0.0977163 6.65546L1.30914 7.87896C1.43384 8.00471 1.6365 8.00627 1.76312 7.88246C3.44579 6.28118 5.67875 5.38826 8.00044 5.38827Z" fill="white"/>
</svg>
