<svg width="27" height="13" viewBox="0 0 27 13" fill="none" xmlns="http://www.w3.org/2000/svg">
<g opacity="0.5">
<path fill-rule="evenodd" clip-rule="evenodd" d="M0 3.5C0 1.84315 1.34315 0.5 3 0.5H21C22.6569 0.5 24 1.84315 24 3.5V10C24 11.6569 22.6569 13 21 13H3C1.34315 13 0 11.6569 0 10V3.5ZM3 1.5C1.89543 1.5 1 2.39543 1 3.5V10C1 11.1046 1.89543 12 3 12H21C22.1046 12 23 11.1046 23 10V3.5C23 2.39543 22.1046 1.5 21 1.5H3Z" fill="white"/>
<path d="M25 9.04196C25.883 8.65619 26.5 7.77515 26.5 6.74999C26.5 5.72483 25.883 4.84379 25 4.45801V9.04196Z" fill="white"/>
</g>
</svg>
